<mxfile host="app.diagrams.net" agent="Mozilla/5.0 (Windows NT 10.0; Win64; x64) AppleWebKit/537.36 (KHTML, like Gecko) Chrome/129.0.0.0 Safari/537.36" version="24.7.16">
  <diagram name="Page-1" id="d68mastPprzEtAu5r2Ha">
    <mxGraphModel dx="1050" dy="557" grid="1" gridSize="10" guides="1" tooltips="1" connect="1" arrows="1" fold="1" page="1" pageScale="1" pageWidth="850" pageHeight="1100" math="0" shadow="0">
      <root>
        <mxCell id="0" />
        <mxCell id="1" parent="0" />
        <mxCell id="FY4jOLK4kZRqqMJBtK9q-3" value="" style="rounded=0;whiteSpace=wrap;html=1;rotation=90;fontStyle=1" parent="1" vertex="1">
          <mxGeometry x="-234" y="435" width="1318.75" height="585" as="geometry" />
        </mxCell>
        <mxCell id="FY4jOLK4kZRqqMJBtK9q-7" value="Customer" style="shape=umlActor;html=1;verticalLabelPosition=bottom;verticalAlign=top;align=center;fontStyle=1" parent="1" vertex="1">
          <mxGeometry x="45" y="500" width="30" height="60" as="geometry" />
        </mxCell>
        <mxCell id="FY4jOLK4kZRqqMJBtK9q-8" value="Hotel Manager" style="shape=umlActor;html=1;verticalLabelPosition=bottom;verticalAlign=top;align=center;fontStyle=1" parent="1" vertex="1">
          <mxGeometry x="45" y="860" width="30" height="60" as="geometry" />
        </mxCell>
        <mxCell id="FY4jOLK4kZRqqMJBtK9q-9" value="Unregistered User" style="shape=umlActor;html=1;verticalLabelPosition=bottom;verticalAlign=top;align=center;fontStyle=1" parent="1" vertex="1">
          <mxGeometry x="45" y="180" width="30" height="60" as="geometry" />
        </mxCell>
        <mxCell id="FY4jOLK4kZRqqMJBtK9q-10" value="System Admin" style="shape=umlActor;html=1;verticalLabelPosition=bottom;verticalAlign=top;align=center;fontStyle=1" parent="1" vertex="1">
          <mxGeometry x="75" y="1170" width="30" height="60" as="geometry" />
        </mxCell>
        <mxCell id="FY4jOLK4kZRqqMJBtK9q-12" value="&lt;font style=&quot;font-size: 10px;&quot;&gt;Login&lt;/font&gt;" style="ellipse;whiteSpace=wrap;html=1;fontStyle=1" parent="1" vertex="1">
          <mxGeometry x="160" y="110" width="90" height="50" as="geometry" />
        </mxCell>
        <mxCell id="FY4jOLK4kZRqqMJBtK9q-13" value="&lt;font style=&quot;font-size: 10px;&quot;&gt;Register to the System&lt;/font&gt;" style="ellipse;whiteSpace=wrap;html=1;fontStyle=1" parent="1" vertex="1">
          <mxGeometry x="150" y="170" width="90" height="50" as="geometry" />
        </mxCell>
        <mxCell id="FY4jOLK4kZRqqMJBtK9q-14" value="&lt;span style=&quot;font-size: 10px;&quot;&gt;Search Hotel Details&lt;/span&gt;" style="ellipse;whiteSpace=wrap;html=1;fontStyle=1" parent="1" vertex="1">
          <mxGeometry x="200" y="220" width="90" height="50" as="geometry" />
        </mxCell>
        <mxCell id="FY4jOLK4kZRqqMJBtK9q-15" value="&lt;span style=&quot;font-size: 10px;&quot;&gt;View Hotel Details&lt;/span&gt;" style="ellipse;whiteSpace=wrap;html=1;fontStyle=1" parent="1" vertex="1">
          <mxGeometry x="170" y="290" width="90" height="50" as="geometry" />
        </mxCell>
        <mxCell id="FY4jOLK4kZRqqMJBtK9q-16" value="&lt;font style=&quot;font-size: 10px;&quot;&gt;Check Valid user&lt;/font&gt;" style="ellipse;whiteSpace=wrap;html=1;fontStyle=1" parent="1" vertex="1">
          <mxGeometry x="350" y="110" width="90" height="50" as="geometry" />
        </mxCell>
        <mxCell id="FY4jOLK4kZRqqMJBtK9q-21" value="" style="html=1;labelBackgroundColor=#ffffff;startArrow=none;startFill=0;startSize=6;endArrow=classic;endFill=1;endSize=6;jettySize=auto;orthogonalLoop=1;strokeWidth=1;dashed=1;fontSize=14;rounded=0;exitX=1;exitY=0.5;exitDx=0;exitDy=0;fontStyle=1" parent="1" source="FY4jOLK4kZRqqMJBtK9q-12" target="FY4jOLK4kZRqqMJBtK9q-16" edge="1">
          <mxGeometry width="60" height="60" relative="1" as="geometry">
            <mxPoint x="250" y="130" as="sourcePoint" />
            <mxPoint x="310" y="70" as="targetPoint" />
          </mxGeometry>
        </mxCell>
        <mxCell id="FY4jOLK4kZRqqMJBtK9q-23" value="&lt;font style=&quot;font-size: 10px;&quot;&gt;&amp;lt;&amp;lt;include&amp;gt;&amp;gt;&lt;/font&gt;" style="text;html=1;align=center;verticalAlign=middle;whiteSpace=wrap;rounded=0;fontStyle=1" parent="1" vertex="1">
          <mxGeometry x="260" y="110" width="60" height="30" as="geometry" />
        </mxCell>
        <mxCell id="FY4jOLK4kZRqqMJBtK9q-24" value="" style="html=1;labelBackgroundColor=#ffffff;startArrow=none;startFill=0;startSize=6;endArrow=classic;endFill=1;endSize=6;jettySize=auto;orthogonalLoop=1;strokeWidth=1;dashed=1;fontSize=14;rounded=0;exitX=1;exitY=0.5;exitDx=0;exitDy=0;fontStyle=1" parent="1" edge="1">
          <mxGeometry width="60" height="60" relative="1" as="geometry">
            <mxPoint x="250" y="204.67000000000002" as="sourcePoint" />
            <mxPoint x="350" y="204.67000000000002" as="targetPoint" />
          </mxGeometry>
        </mxCell>
        <mxCell id="FY4jOLK4kZRqqMJBtK9q-25" value="&lt;font style=&quot;font-size: 10px;&quot;&gt;Fill in Registration Form&lt;/font&gt;" style="ellipse;whiteSpace=wrap;html=1;fontStyle=1" parent="1" vertex="1">
          <mxGeometry x="350" y="180" width="90" height="50" as="geometry" />
        </mxCell>
        <mxCell id="FY4jOLK4kZRqqMJBtK9q-26" value="&lt;font style=&quot;font-size: 10px;&quot;&gt;&amp;lt;&amp;lt;include&amp;gt;&amp;gt;&lt;/font&gt;" style="text;html=1;align=center;verticalAlign=middle;whiteSpace=wrap;rounded=0;fontStyle=1" parent="1" vertex="1">
          <mxGeometry x="260" y="180" width="60" height="30" as="geometry" />
        </mxCell>
        <mxCell id="FY4jOLK4kZRqqMJBtK9q-27" value="" style="html=1;labelBackgroundColor=#ffffff;startArrow=none;startFill=0;startSize=6;endArrow=classic;endFill=1;endSize=6;jettySize=auto;orthogonalLoop=1;strokeWidth=1;dashed=1;fontSize=14;rounded=0;exitX=1;exitY=0.5;exitDx=0;exitDy=0;entryX=0;entryY=0.5;entryDx=0;entryDy=0;fontStyle=1" parent="1" target="FY4jOLK4kZRqqMJBtK9q-28" edge="1">
          <mxGeometry width="60" height="60" relative="1" as="geometry">
            <mxPoint x="260" y="314.57" as="sourcePoint" />
            <mxPoint x="360" y="314.57" as="targetPoint" />
          </mxGeometry>
        </mxCell>
        <mxCell id="FY4jOLK4kZRqqMJBtK9q-28" value="&lt;div style=&quot;&quot;&gt;&lt;span style=&quot;font-size: 8px; background-color: initial;&quot;&gt;Room Available &amp;amp;Price&lt;/span&gt;&lt;/div&gt;&lt;div style=&quot;&quot;&gt;&lt;span style=&quot;font-size: 8px; background-color: initial;&quot;&gt;&lt;br&gt;&lt;/span&gt;&lt;/div&gt;&lt;div style=&quot;&quot;&gt;&lt;span style=&quot;font-size: 8px; background-color: initial;&quot;&gt;Wants to book&lt;/span&gt;&lt;/div&gt;" style="ellipse;whiteSpace=wrap;html=1;align=center;fontStyle=1" parent="1" vertex="1">
          <mxGeometry x="350" y="270" width="100" height="70" as="geometry" />
        </mxCell>
        <mxCell id="FY4jOLK4kZRqqMJBtK9q-30" value="" style="endArrow=none;html=1;rounded=0;exitX=0;exitY=0.5;exitDx=0;exitDy=0;entryX=1;entryY=0.5;entryDx=0;entryDy=0;fontStyle=1" parent="1" source="FY4jOLK4kZRqqMJBtK9q-28" target="FY4jOLK4kZRqqMJBtK9q-28" edge="1">
          <mxGeometry width="50" height="50" relative="1" as="geometry">
            <mxPoint x="400" y="370" as="sourcePoint" />
            <mxPoint x="450" y="320" as="targetPoint" />
          </mxGeometry>
        </mxCell>
        <mxCell id="FY4jOLK4kZRqqMJBtK9q-31" value="" style="html=1;labelBackgroundColor=#ffffff;startArrow=none;startFill=0;startSize=6;endArrow=classic;endFill=1;endSize=6;jettySize=auto;orthogonalLoop=1;strokeWidth=1;dashed=1;fontSize=14;rounded=0;exitX=0;exitY=0.5;exitDx=0;exitDy=0;entryX=1;entryY=0.5;entryDx=0;entryDy=0;fontStyle=1" parent="1" source="FY4jOLK4kZRqqMJBtK9q-32" target="FY4jOLK4kZRqqMJBtK9q-28" edge="1">
          <mxGeometry width="60" height="60" relative="1" as="geometry">
            <mxPoint x="440" y="264.64" as="sourcePoint" />
            <mxPoint x="540" y="264.64" as="targetPoint" />
          </mxGeometry>
        </mxCell>
        <mxCell id="FY4jOLK4kZRqqMJBtK9q-32" value="&lt;font style=&quot;font-size: 10px;&quot;&gt;Request Booking&lt;/font&gt;" style="ellipse;whiteSpace=wrap;html=1;fontStyle=1" parent="1" vertex="1">
          <mxGeometry x="540" y="280" width="90" height="50" as="geometry" />
        </mxCell>
        <mxCell id="FY4jOLK4kZRqqMJBtK9q-33" value="&lt;font style=&quot;font-size: 10px;&quot;&gt;&amp;lt;&amp;lt;include&amp;gt;&amp;gt;&lt;/font&gt;" style="text;html=1;align=center;verticalAlign=middle;whiteSpace=wrap;rounded=0;fontStyle=1" parent="1" vertex="1">
          <mxGeometry x="270" y="280" width="60" height="30" as="geometry" />
        </mxCell>
        <mxCell id="FY4jOLK4kZRqqMJBtK9q-34" value="&lt;font style=&quot;font-size: 10px;&quot;&gt;&amp;lt;&amp;lt;extend&amp;gt;&amp;gt;&lt;/font&gt;" style="text;html=1;align=center;verticalAlign=middle;whiteSpace=wrap;rounded=0;rotation=0;fontStyle=1" parent="1" vertex="1">
          <mxGeometry x="470.38" y="280" width="60" height="30" as="geometry" />
        </mxCell>
        <mxCell id="FY4jOLK4kZRqqMJBtK9q-37" value="" style="shape=singleArrow;direction=north;whiteSpace=wrap;html=1;arrowWidth=0.2333333333333371;arrowSize=0.06060606060606104;fontStyle=1" parent="1" vertex="1">
          <mxGeometry x="55" y="270" width="15" height="220" as="geometry" />
        </mxCell>
        <mxCell id="FY4jOLK4kZRqqMJBtK9q-39" value="" style="endArrow=none;html=1;rounded=0;entryX=0;entryY=0.5;entryDx=0;entryDy=0;fontStyle=1" parent="1" target="FY4jOLK4kZRqqMJBtK9q-12" edge="1">
          <mxGeometry width="50" height="50" relative="1" as="geometry">
            <mxPoint x="70" y="210" as="sourcePoint" />
            <mxPoint x="120" y="160" as="targetPoint" />
          </mxGeometry>
        </mxCell>
        <mxCell id="FY4jOLK4kZRqqMJBtK9q-40" value="" style="endArrow=none;html=1;rounded=0;exitX=0;exitY=0.5;exitDx=0;exitDy=0;fontStyle=1" parent="1" source="FY4jOLK4kZRqqMJBtK9q-13" edge="1">
          <mxGeometry width="50" height="50" relative="1" as="geometry">
            <mxPoint x="20" y="260" as="sourcePoint" />
            <mxPoint x="70" y="210" as="targetPoint" />
          </mxGeometry>
        </mxCell>
        <mxCell id="FY4jOLK4kZRqqMJBtK9q-41" value="" style="endArrow=none;html=1;rounded=0;exitX=0;exitY=0.5;exitDx=0;exitDy=0;fontStyle=1" parent="1" source="FY4jOLK4kZRqqMJBtK9q-14" edge="1">
          <mxGeometry width="50" height="50" relative="1" as="geometry">
            <mxPoint x="170" y="215" as="sourcePoint" />
            <mxPoint x="70" y="210" as="targetPoint" />
          </mxGeometry>
        </mxCell>
        <mxCell id="FY4jOLK4kZRqqMJBtK9q-42" value="" style="endArrow=none;html=1;rounded=0;exitX=0;exitY=0;exitDx=0;exitDy=0;fontStyle=1" parent="1" source="FY4jOLK4kZRqqMJBtK9q-15" edge="1">
          <mxGeometry width="50" height="50" relative="1" as="geometry">
            <mxPoint x="160" y="205" as="sourcePoint" />
            <mxPoint x="70" y="210" as="targetPoint" />
          </mxGeometry>
        </mxCell>
        <mxCell id="FY4jOLK4kZRqqMJBtK9q-46" value="&lt;font style=&quot;font-size: 10px;&quot;&gt;booking&lt;/font&gt;" style="ellipse;whiteSpace=wrap;html=1;fontStyle=1" parent="1" vertex="1">
          <mxGeometry x="160" y="394.38" width="90" height="50" as="geometry" />
        </mxCell>
        <mxCell id="FY4jOLK4kZRqqMJBtK9q-47" value="&lt;font style=&quot;font-size: 10px;&quot;&gt;Edit Profile&lt;/font&gt;" style="ellipse;whiteSpace=wrap;html=1;fontStyle=1" parent="1" vertex="1">
          <mxGeometry x="160" y="450" width="90" height="50" as="geometry" />
        </mxCell>
        <mxCell id="FY4jOLK4kZRqqMJBtK9q-48" value="&lt;font style=&quot;font-size: 10px;&quot;&gt;canceling a hotel reservation&lt;/font&gt;" style="ellipse;whiteSpace=wrap;html=1;fontStyle=1" parent="1" vertex="1">
          <mxGeometry x="160" y="505" width="100" height="50" as="geometry" />
        </mxCell>
        <mxCell id="FY4jOLK4kZRqqMJBtK9q-49" value="&lt;font style=&quot;font-size: 10px;&quot;&gt;View Booking History&lt;/font&gt;" style="ellipse;whiteSpace=wrap;html=1;fontStyle=1" parent="1" vertex="1">
          <mxGeometry x="160" y="560" width="90" height="50" as="geometry" />
        </mxCell>
        <mxCell id="FY4jOLK4kZRqqMJBtK9q-50" value="" style="endArrow=none;html=1;rounded=0;entryX=0.27;entryY=0.96;entryDx=0;entryDy=0;entryPerimeter=0;fontStyle=1" parent="1" target="FY4jOLK4kZRqqMJBtK9q-32" edge="1">
          <mxGeometry width="50" height="50" relative="1" as="geometry">
            <mxPoint x="250" y="420" as="sourcePoint" />
            <mxPoint x="300" y="370" as="targetPoint" />
          </mxGeometry>
        </mxCell>
        <mxCell id="FY4jOLK4kZRqqMJBtK9q-51" value="" style="endArrow=none;html=1;rounded=0;fontStyle=1" parent="1" edge="1">
          <mxGeometry width="50" height="50" relative="1" as="geometry">
            <mxPoint x="80" y="520" as="sourcePoint" />
            <mxPoint x="160" y="420" as="targetPoint" />
          </mxGeometry>
        </mxCell>
        <mxCell id="FY4jOLK4kZRqqMJBtK9q-52" value="" style="endArrow=none;html=1;rounded=0;entryX=0;entryY=0.5;entryDx=0;entryDy=0;fontStyle=1" parent="1" target="FY4jOLK4kZRqqMJBtK9q-47" edge="1">
          <mxGeometry width="50" height="50" relative="1" as="geometry">
            <mxPoint x="80" y="520" as="sourcePoint" />
            <mxPoint x="170" y="430" as="targetPoint" />
          </mxGeometry>
        </mxCell>
        <mxCell id="FY4jOLK4kZRqqMJBtK9q-53" value="&lt;font style=&quot;font-size: 10px;&quot;&gt;&lt;span style=&quot;color: rgb(0, 0, 0); font-family: Helvetica; font-style: normal; font-variant-ligatures: normal; font-variant-caps: normal; letter-spacing: normal; orphans: 2; text-align: center; text-indent: 0px; text-transform: none; widows: 2; word-spacing: 0px; -webkit-text-stroke-width: 0px; white-space: normal; background-color: rgb(251, 251, 251); text-decoration-thickness: initial; text-decoration-style: initial; text-decoration-color: initial; float: none; display: inline !important;&quot;&gt;Make Payment&lt;/span&gt;&lt;br&gt;&lt;/font&gt;&lt;div&gt;&lt;span style=&quot;font-size: 10px;&quot;&gt;add promotions&lt;/span&gt;&lt;br&gt;&lt;/div&gt;" style="ellipse;whiteSpace=wrap;html=1;rotation=0;fontStyle=1" parent="1" vertex="1">
          <mxGeometry x="334.96" y="399.57" width="95" height="50" as="geometry" />
        </mxCell>
        <mxCell id="FY4jOLK4kZRqqMJBtK9q-54" value="" style="endArrow=none;html=1;rounded=0;exitX=0;exitY=0.5;exitDx=0;exitDy=0;entryX=1;entryY=0.5;entryDx=0;entryDy=0;fontStyle=1" parent="1" source="FY4jOLK4kZRqqMJBtK9q-53" target="FY4jOLK4kZRqqMJBtK9q-53" edge="1">
          <mxGeometry width="50" height="50" relative="1" as="geometry">
            <mxPoint x="410" y="480" as="sourcePoint" />
            <mxPoint x="430" y="430" as="targetPoint" />
          </mxGeometry>
        </mxCell>
        <mxCell id="FY4jOLK4kZRqqMJBtK9q-55" value="" style="html=1;labelBackgroundColor=#ffffff;startArrow=none;startFill=0;startSize=6;endArrow=classic;endFill=1;endSize=6;jettySize=auto;orthogonalLoop=1;strokeWidth=1;dashed=1;fontSize=14;rounded=0;exitX=1;exitY=0.5;exitDx=0;exitDy=0;entryX=0;entryY=0.5;entryDx=0;entryDy=0;fontStyle=1" parent="1" target="FY4jOLK4kZRqqMJBtK9q-53" edge="1">
          <mxGeometry width="60" height="60" relative="1" as="geometry">
            <mxPoint x="250" y="424.15999999999997" as="sourcePoint" />
            <mxPoint x="340" y="414.59000000000003" as="targetPoint" />
          </mxGeometry>
        </mxCell>
        <mxCell id="FY4jOLK4kZRqqMJBtK9q-56" value="&lt;font style=&quot;font-size: 10px;&quot;&gt;&amp;lt;&amp;lt;include&amp;gt;&amp;gt;&lt;/font&gt;" style="text;html=1;align=center;verticalAlign=middle;whiteSpace=wrap;rounded=0;rotation=0;fontStyle=1" parent="1" vertex="1">
          <mxGeometry x="270" y="404.38" width="60" height="30" as="geometry" />
        </mxCell>
        <mxCell id="FY4jOLK4kZRqqMJBtK9q-58" value="&lt;font style=&quot;font-size: 10px;&quot;&gt;check promotion validation&lt;/font&gt;" style="ellipse;whiteSpace=wrap;html=1;rotation=0;fontStyle=1" parent="1" vertex="1">
          <mxGeometry x="460" y="560" width="90" height="50" as="geometry" />
        </mxCell>
        <mxCell id="FY4jOLK4kZRqqMJBtK9q-59" value="&lt;font style=&quot;font-size: 10px;&quot;&gt;&amp;lt;&amp;lt;extend&amp;gt;&amp;gt;&lt;/font&gt;" style="text;html=1;align=center;verticalAlign=middle;whiteSpace=wrap;rounded=0;rotation=40;fontStyle=1" parent="1" vertex="1">
          <mxGeometry x="425" y="485" width="60" height="30" as="geometry" />
        </mxCell>
        <mxCell id="FY4jOLK4kZRqqMJBtK9q-62" value="&lt;font style=&quot;font-size: 10px;&quot;&gt;Online payment&lt;/font&gt;" style="ellipse;whiteSpace=wrap;html=1;fontStyle=1" parent="1" vertex="1">
          <mxGeometry x="540" y="363.95" width="80" height="35.62" as="geometry" />
        </mxCell>
        <mxCell id="FY4jOLK4kZRqqMJBtK9q-63" value="&lt;font style=&quot;font-size: 10px;&quot;&gt;Card&lt;/font&gt;" style="ellipse;whiteSpace=wrap;html=1;fontStyle=1" parent="1" vertex="1">
          <mxGeometry x="510" y="434.38" width="70" height="35.62" as="geometry" />
        </mxCell>
        <mxCell id="FY4jOLK4kZRqqMJBtK9q-64" value="" style="endArrow=classic;html=1;rounded=0;entryX=0.922;entryY=0.779;entryDx=0;entryDy=0;entryPerimeter=0;exitX=0.033;exitY=0.289;exitDx=0;exitDy=0;exitPerimeter=0;fontStyle=1" parent="1" source="FY4jOLK4kZRqqMJBtK9q-63" target="FY4jOLK4kZRqqMJBtK9q-53" edge="1">
          <mxGeometry width="50" height="50" relative="1" as="geometry">
            <mxPoint x="450" y="470" as="sourcePoint" />
            <mxPoint x="394" y="459" as="targetPoint" />
          </mxGeometry>
        </mxCell>
        <mxCell id="FY4jOLK4kZRqqMJBtK9q-65" value="Bank" style="shape=umlActor;html=1;verticalLabelPosition=bottom;verticalAlign=top;align=center;fontStyle=1" parent="1" vertex="1">
          <mxGeometry x="750" y="570" width="30" height="60" as="geometry" />
        </mxCell>
        <mxCell id="FY4jOLK4kZRqqMJBtK9q-66" value="" style="html=1;labelBackgroundColor=#ffffff;startArrow=none;startFill=0;startSize=6;endArrow=classic;endFill=1;endSize=6;jettySize=auto;orthogonalLoop=1;strokeWidth=1;dashed=1;fontSize=14;rounded=0;exitX=1;exitY=1;exitDx=0;exitDy=0;entryX=0.5;entryY=0;entryDx=0;entryDy=0;fontStyle=1" parent="1" source="FY4jOLK4kZRqqMJBtK9q-63" target="FY4jOLK4kZRqqMJBtK9q-67" edge="1">
          <mxGeometry width="60" height="60" relative="1" as="geometry">
            <mxPoint x="510" y="505" as="sourcePoint" />
            <mxPoint x="596" y="513.84" as="targetPoint" />
          </mxGeometry>
        </mxCell>
        <mxCell id="FY4jOLK4kZRqqMJBtK9q-67" value="&lt;font style=&quot;font-size: 10px;&quot;&gt;Handle Payment&lt;/font&gt;" style="ellipse;whiteSpace=wrap;html=1;fontStyle=1" parent="1" vertex="1">
          <mxGeometry x="582.5" y="555" width="85" height="42.81" as="geometry" />
        </mxCell>
        <mxCell id="FY4jOLK4kZRqqMJBtK9q-68" value="&lt;font style=&quot;font-size: 10px;&quot;&gt;&amp;lt;&amp;lt;include&amp;gt;&amp;gt;&lt;/font&gt;" style="text;html=1;align=center;verticalAlign=middle;whiteSpace=wrap;rounded=0;rotation=60;fontStyle=1" parent="1" vertex="1">
          <mxGeometry x="580" y="490" width="50" height="20" as="geometry" />
        </mxCell>
        <mxCell id="FY4jOLK4kZRqqMJBtK9q-69" value="" style="endArrow=none;html=1;rounded=0;exitX=1;exitY=0.5;exitDx=0;exitDy=0;fontStyle=1" parent="1" source="FY4jOLK4kZRqqMJBtK9q-67" target="FY4jOLK4kZRqqMJBtK9q-65" edge="1">
          <mxGeometry width="50" height="50" relative="1" as="geometry">
            <mxPoint x="380" y="670" as="sourcePoint" />
            <mxPoint x="430" y="620" as="targetPoint" />
          </mxGeometry>
        </mxCell>
        <mxCell id="FY4jOLK4kZRqqMJBtK9q-70" value="&lt;font style=&quot;font-size: 10px;&quot;&gt;fill cancellation form&lt;/font&gt;" style="ellipse;whiteSpace=wrap;html=1;fontStyle=1" parent="1" vertex="1">
          <mxGeometry x="330" y="490" width="80" height="35.62" as="geometry" />
        </mxCell>
        <mxCell id="FY4jOLK4kZRqqMJBtK9q-71" value="" style="html=1;labelBackgroundColor=#ffffff;startArrow=none;startFill=0;startSize=6;endArrow=classic;endFill=1;endSize=6;jettySize=auto;orthogonalLoop=1;strokeWidth=1;dashed=1;fontSize=14;rounded=0;exitX=1;exitY=0.5;exitDx=0;exitDy=0;entryX=0;entryY=0.5;entryDx=0;entryDy=0;fontStyle=1" parent="1" source="FY4jOLK4kZRqqMJBtK9q-48" target="FY4jOLK4kZRqqMJBtK9q-70" edge="1">
          <mxGeometry width="60" height="60" relative="1" as="geometry">
            <mxPoint x="270" y="535.62" as="sourcePoint" />
            <mxPoint x="356" y="544.46" as="targetPoint" />
          </mxGeometry>
        </mxCell>
        <mxCell id="FY4jOLK4kZRqqMJBtK9q-72" value="&lt;font style=&quot;font-size: 10px;&quot;&gt;Raised a problem&lt;/font&gt;" style="ellipse;whiteSpace=wrap;html=1;fontStyle=1" parent="1" vertex="1">
          <mxGeometry x="160" y="620" width="90" height="50" as="geometry" />
        </mxCell>
        <mxCell id="FY4jOLK4kZRqqMJBtK9q-73" value="&lt;span style=&quot;font-size: 10px;&quot;&gt;Contact Customer Support&lt;/span&gt;" style="ellipse;whiteSpace=wrap;html=1;fontStyle=1" parent="1" vertex="1">
          <mxGeometry x="620" y="670" width="90" height="50" as="geometry" />
        </mxCell>
        <mxCell id="FY4jOLK4kZRqqMJBtK9q-74" value="&lt;font style=&quot;font-size: 10px;&quot;&gt;Raised Ticket&lt;/font&gt;" style="ellipse;whiteSpace=wrap;html=1;fontStyle=1" parent="1" vertex="1">
          <mxGeometry x="290" y="670" width="90" height="50" as="geometry" />
        </mxCell>
        <mxCell id="FY4jOLK4kZRqqMJBtK9q-75" value="&lt;font style=&quot;font-size: 10px;&quot;&gt;Give feedback &amp;amp; Rating&lt;/font&gt;" style="ellipse;whiteSpace=wrap;html=1;fontStyle=1" parent="1" vertex="1">
          <mxGeometry x="160" y="690" width="90" height="50" as="geometry" />
        </mxCell>
        <mxCell id="FY4jOLK4kZRqqMJBtK9q-76" value="" style="endArrow=none;html=1;rounded=0;entryX=0;entryY=0.5;entryDx=0;entryDy=0;fontStyle=1" parent="1" target="FY4jOLK4kZRqqMJBtK9q-48" edge="1">
          <mxGeometry width="50" height="50" relative="1" as="geometry">
            <mxPoint x="80" y="520" as="sourcePoint" />
            <mxPoint x="170" y="485" as="targetPoint" />
          </mxGeometry>
        </mxCell>
        <mxCell id="FY4jOLK4kZRqqMJBtK9q-77" value="" style="endArrow=none;html=1;rounded=0;entryX=0;entryY=0.5;entryDx=0;entryDy=0;fontStyle=1" parent="1" target="FY4jOLK4kZRqqMJBtK9q-49" edge="1">
          <mxGeometry width="50" height="50" relative="1" as="geometry">
            <mxPoint x="80" y="520" as="sourcePoint" />
            <mxPoint x="170" y="540" as="targetPoint" />
          </mxGeometry>
        </mxCell>
        <mxCell id="FY4jOLK4kZRqqMJBtK9q-78" value="" style="endArrow=none;html=1;rounded=0;entryX=-0.001;entryY=0.391;entryDx=0;entryDy=0;entryPerimeter=0;fontStyle=1" parent="1" target="FY4jOLK4kZRqqMJBtK9q-72" edge="1">
          <mxGeometry width="50" height="50" relative="1" as="geometry">
            <mxPoint x="80" y="520" as="sourcePoint" />
            <mxPoint x="180" y="550" as="targetPoint" />
          </mxGeometry>
        </mxCell>
        <mxCell id="FY4jOLK4kZRqqMJBtK9q-79" value="" style="endArrow=none;html=1;rounded=0;entryX=0.047;entryY=0.348;entryDx=0;entryDy=0;entryPerimeter=0;fontStyle=1" parent="1" target="FY4jOLK4kZRqqMJBtK9q-75" edge="1">
          <mxGeometry width="50" height="50" relative="1" as="geometry">
            <mxPoint x="80" y="520" as="sourcePoint" />
            <mxPoint x="190" y="560" as="targetPoint" />
          </mxGeometry>
        </mxCell>
        <mxCell id="FY4jOLK4kZRqqMJBtK9q-80" value="" style="endArrow=classic;html=1;rounded=0;entryX=0.975;entryY=0.252;entryDx=0;entryDy=0;entryPerimeter=0;exitX=0;exitY=0.5;exitDx=0;exitDy=0;fontStyle=1" parent="1" source="FY4jOLK4kZRqqMJBtK9q-73" target="FY4jOLK4kZRqqMJBtK9q-72" edge="1">
          <mxGeometry width="50" height="50" relative="1" as="geometry">
            <mxPoint x="300" y="585" as="sourcePoint" />
            <mxPoint x="244" y="550" as="targetPoint" />
          </mxGeometry>
        </mxCell>
        <mxCell id="FY4jOLK4kZRqqMJBtK9q-82" value="" style="endArrow=classic;html=1;rounded=0;entryX=1;entryY=0.5;entryDx=0;entryDy=0;exitX=0;exitY=0.5;exitDx=0;exitDy=0;fontStyle=1" parent="1" source="FY4jOLK4kZRqqMJBtK9q-74" target="FY4jOLK4kZRqqMJBtK9q-72" edge="1">
          <mxGeometry width="50" height="50" relative="1" as="geometry">
            <mxPoint x="310" y="615" as="sourcePoint" />
            <mxPoint x="258" y="643" as="targetPoint" />
          </mxGeometry>
        </mxCell>
        <mxCell id="ZKI_vBoumGyFwL3VDmpo-1" value="&lt;font style=&quot;font-size: 10px;&quot;&gt;Maintain Room&lt;/font&gt;" style="ellipse;whiteSpace=wrap;html=1;fontStyle=1" parent="1" vertex="1">
          <mxGeometry x="160" y="850" width="90" height="50" as="geometry" />
        </mxCell>
        <mxCell id="ZKI_vBoumGyFwL3VDmpo-3" value="&lt;span style=&quot;font-size: 10px;&quot;&gt;Generate Reports&lt;/span&gt;" style="ellipse;whiteSpace=wrap;html=1;fontStyle=1" parent="1" vertex="1">
          <mxGeometry x="160" y="910" width="90" height="50" as="geometry" />
        </mxCell>
        <mxCell id="ZKI_vBoumGyFwL3VDmpo-4" value="&lt;font style=&quot;font-size: 10px;&quot;&gt;Promotion Awareness&lt;/font&gt;" style="ellipse;whiteSpace=wrap;html=1;fontStyle=1" parent="1" vertex="1">
          <mxGeometry x="160" y="970" width="90" height="50" as="geometry" />
        </mxCell>
        <mxCell id="ZKI_vBoumGyFwL3VDmpo-5" value="&lt;font style=&quot;font-size: 10px;&quot;&gt;Login to the editor envirnment&lt;/font&gt;&lt;div&gt;&lt;font style=&quot;font-size: 10px;&quot;&gt;if credentials are invalid&lt;/font&gt;&lt;/div&gt;" style="ellipse;whiteSpace=wrap;html=1;rotation=0;fontStyle=1" parent="1" vertex="1">
          <mxGeometry x="310" y="750" width="140" height="70" as="geometry" />
        </mxCell>
        <mxCell id="ZKI_vBoumGyFwL3VDmpo-6" value="" style="endArrow=none;html=1;rounded=0;entryX=1;entryY=0.5;entryDx=0;entryDy=0;exitX=0;exitY=0.5;exitDx=0;exitDy=0;fontStyle=1" parent="1" edge="1">
          <mxGeometry width="50" height="50" relative="1" as="geometry">
            <mxPoint x="310" y="790" as="sourcePoint" />
            <mxPoint x="450" y="790" as="targetPoint" />
          </mxGeometry>
        </mxCell>
        <mxCell id="ZKI_vBoumGyFwL3VDmpo-7" value="&lt;font style=&quot;font-size: 10px;&quot;&gt;Display error message&lt;/font&gt;" style="ellipse;whiteSpace=wrap;html=1;rotation=0;fontStyle=1" parent="1" vertex="1">
          <mxGeometry x="530" y="740" width="90" height="50" as="geometry" />
        </mxCell>
        <mxCell id="ZKI_vBoumGyFwL3VDmpo-8" value="" style="html=1;labelBackgroundColor=#ffffff;startArrow=none;startFill=0;startSize=6;endArrow=classic;endFill=1;endSize=6;jettySize=auto;orthogonalLoop=1;strokeWidth=1;dashed=1;fontSize=14;rounded=0;exitX=0;exitY=0.5;exitDx=0;exitDy=0;entryX=0.984;entryY=0.356;entryDx=0;entryDy=0;entryPerimeter=0;fontStyle=1" parent="1" source="ZKI_vBoumGyFwL3VDmpo-7" target="ZKI_vBoumGyFwL3VDmpo-5" edge="1">
          <mxGeometry width="60" height="60" relative="1" as="geometry">
            <mxPoint x="500" y="680" as="sourcePoint" />
            <mxPoint x="546" y="740" as="targetPoint" />
          </mxGeometry>
        </mxCell>
        <mxCell id="ZKI_vBoumGyFwL3VDmpo-9" value="&lt;font style=&quot;font-size: 10px;&quot;&gt;&amp;lt;&amp;lt;extend&amp;gt;&amp;gt;&lt;/font&gt;" style="text;html=1;align=center;verticalAlign=middle;whiteSpace=wrap;rounded=0;rotation=-5;fontStyle=1" parent="1" vertex="1">
          <mxGeometry x="459.96" y="740" width="60" height="30" as="geometry" />
        </mxCell>
        <mxCell id="ZKI_vBoumGyFwL3VDmpo-11" value="" style="html=1;labelBackgroundColor=#ffffff;startArrow=none;startFill=0;startSize=6;endArrow=classic;endFill=1;endSize=6;jettySize=auto;orthogonalLoop=1;strokeWidth=1;dashed=1;fontSize=14;rounded=0;exitX=0.948;exitY=0.227;exitDx=0;exitDy=0;entryX=0;entryY=0.5;entryDx=0;entryDy=0;exitPerimeter=0;fontStyle=1" parent="1" source="ZKI_vBoumGyFwL3VDmpo-1" target="ZKI_vBoumGyFwL3VDmpo-5" edge="1">
          <mxGeometry width="60" height="60" relative="1" as="geometry">
            <mxPoint x="270" y="760" as="sourcePoint" />
            <mxPoint x="316" y="820" as="targetPoint" />
          </mxGeometry>
        </mxCell>
        <mxCell id="ZKI_vBoumGyFwL3VDmpo-12" value="" style="html=1;labelBackgroundColor=#ffffff;startArrow=none;startFill=0;startSize=6;endArrow=classic;endFill=1;endSize=6;jettySize=auto;orthogonalLoop=1;strokeWidth=1;dashed=1;fontSize=14;rounded=0;exitX=0.5;exitY=0;exitDx=0;exitDy=0;entryX=0.372;entryY=0.946;entryDx=0;entryDy=0;entryPerimeter=0;fontStyle=1" parent="1" source="FY4jOLK4kZRqqMJBtK9q-58" target="FY4jOLK4kZRqqMJBtK9q-53" edge="1">
          <mxGeometry width="60" height="60" relative="1" as="geometry">
            <mxPoint x="404" y="490" as="sourcePoint" />
            <mxPoint x="450" y="550" as="targetPoint" />
          </mxGeometry>
        </mxCell>
        <mxCell id="ZKI_vBoumGyFwL3VDmpo-13" value="" style="endArrow=classic;html=1;rounded=0;entryX=0.956;entryY=0.411;entryDx=0;entryDy=0;entryPerimeter=0;exitX=0;exitY=0.5;exitDx=0;exitDy=0;fontStyle=1" parent="1" source="FY4jOLK4kZRqqMJBtK9q-62" target="FY4jOLK4kZRqqMJBtK9q-53" edge="1">
          <mxGeometry width="50" height="50" relative="1" as="geometry">
            <mxPoint x="482.96" y="437.38" as="sourcePoint" />
            <mxPoint x="429.96" y="401.38" as="targetPoint" />
          </mxGeometry>
        </mxCell>
        <mxCell id="ZKI_vBoumGyFwL3VDmpo-17" value="&lt;font style=&quot;font-size: 10px;&quot;&gt;Upload room details&lt;/font&gt;" style="ellipse;whiteSpace=wrap;html=1;fontStyle=1" parent="1" vertex="1">
          <mxGeometry x="429.96" y="810" width="90" height="50" as="geometry" />
        </mxCell>
        <mxCell id="ZKI_vBoumGyFwL3VDmpo-19" value="&lt;span style=&quot;font-size: 10px;&quot;&gt;edit room availability&lt;/span&gt;" style="ellipse;whiteSpace=wrap;html=1;fontStyle=1" parent="1" vertex="1">
          <mxGeometry x="380.38" y="880" width="90" height="50" as="geometry" />
        </mxCell>
        <mxCell id="ZKI_vBoumGyFwL3VDmpo-20" value="" style="endArrow=classic;html=1;rounded=0;entryX=1.015;entryY=0.413;entryDx=0;entryDy=0;entryPerimeter=0;exitX=0.033;exitY=0.427;exitDx=0;exitDy=0;exitPerimeter=0;fontStyle=1" parent="1" source="ZKI_vBoumGyFwL3VDmpo-17" target="ZKI_vBoumGyFwL3VDmpo-1" edge="1">
          <mxGeometry width="50" height="50" relative="1" as="geometry">
            <mxPoint x="380" y="880" as="sourcePoint" />
            <mxPoint x="430" y="830" as="targetPoint" />
          </mxGeometry>
        </mxCell>
        <mxCell id="ZKI_vBoumGyFwL3VDmpo-22" value="" style="endArrow=classic;html=1;rounded=0;entryX=0.944;entryY=0.6;entryDx=0;entryDy=0;entryPerimeter=0;exitX=0;exitY=0;exitDx=0;exitDy=0;fontStyle=1" parent="1" source="ZKI_vBoumGyFwL3VDmpo-19" target="ZKI_vBoumGyFwL3VDmpo-1" edge="1">
          <mxGeometry width="50" height="50" relative="1" as="geometry">
            <mxPoint x="383" y="851" as="sourcePoint" />
            <mxPoint x="266" y="871" as="targetPoint" />
          </mxGeometry>
        </mxCell>
        <mxCell id="ZKI_vBoumGyFwL3VDmpo-24" value="&lt;font style=&quot;font-size: 10px;&quot;&gt;Manage Promotions&lt;/font&gt;&lt;div&gt;&lt;font style=&quot;font-size: 10px;&quot;&gt;If New Promotions&lt;/font&gt;&lt;/div&gt;" style="ellipse;whiteSpace=wrap;html=1;fontStyle=1" parent="1" vertex="1">
          <mxGeometry x="160" y="1110" width="135" height="50" as="geometry" />
        </mxCell>
        <mxCell id="ZKI_vBoumGyFwL3VDmpo-25" value="&lt;font style=&quot;font-size: 10px;&quot;&gt;Inspect System Errors&lt;/font&gt;&lt;div&gt;&lt;span style=&quot;font-size: 10px;&quot;&gt;&lt;br&gt;&lt;/span&gt;&lt;div&gt;&lt;font style=&quot;font-size: 10px;&quot;&gt;If system has no errors&lt;/font&gt;&lt;/div&gt;&lt;/div&gt;" style="ellipse;whiteSpace=wrap;html=1;fontStyle=1" parent="1" vertex="1">
          <mxGeometry x="230" y="1290" width="130" height="70" as="geometry" />
        </mxCell>
        <mxCell id="ZKI_vBoumGyFwL3VDmpo-26" value="&lt;font style=&quot;font-size: 10px;&quot;&gt;Manage Customer Support&lt;/font&gt;" style="ellipse;whiteSpace=wrap;html=1;fontStyle=1" parent="1" vertex="1">
          <mxGeometry x="290" y="1140" width="90" height="50" as="geometry" />
        </mxCell>
        <mxCell id="ZKI_vBoumGyFwL3VDmpo-27" value="" style="html=1;labelBackgroundColor=#ffffff;startArrow=none;startFill=0;startSize=6;endArrow=classic;endFill=1;endSize=6;jettySize=auto;orthogonalLoop=1;strokeWidth=1;dashed=1;fontSize=14;rounded=0;exitX=0.666;exitY=0.025;exitDx=0;exitDy=0;entryX=0.648;entryY=0.973;entryDx=0;entryDy=0;exitPerimeter=0;entryPerimeter=0;fontStyle=1" parent="1" source="ZKI_vBoumGyFwL3VDmpo-26" target="FY4jOLK4kZRqqMJBtK9q-73" edge="1">
          <mxGeometry width="60" height="60" relative="1" as="geometry">
            <mxPoint x="450" y="1120" as="sourcePoint" />
            <mxPoint x="479" y="1069" as="targetPoint" />
          </mxGeometry>
        </mxCell>
        <mxCell id="ZKI_vBoumGyFwL3VDmpo-28" value="&lt;font style=&quot;font-size: 10px;&quot;&gt;&amp;lt;&amp;lt;include&amp;gt;&amp;gt;&lt;/font&gt;" style="text;html=1;align=center;verticalAlign=middle;whiteSpace=wrap;rounded=0;rotation=-50;fontStyle=1" parent="1" vertex="1">
          <mxGeometry x="410" y="980" width="75" height="21.77" as="geometry" />
        </mxCell>
        <mxCell id="ZKI_vBoumGyFwL3VDmpo-35" value="&lt;font style=&quot;font-size: 10px;&quot;&gt;&amp;lt;&amp;lt;include&amp;gt;&amp;gt;&lt;/font&gt;" style="text;html=1;align=center;verticalAlign=middle;whiteSpace=wrap;rounded=0;rotation=-15;fontStyle=1" parent="1" vertex="1">
          <mxGeometry x="255" y="495.62" width="60" height="30" as="geometry" />
        </mxCell>
        <mxCell id="ZKI_vBoumGyFwL3VDmpo-36" value="&lt;font style=&quot;font-size: 10px;&quot;&gt;Manage Tickets&lt;/font&gt;" style="ellipse;whiteSpace=wrap;html=1;fontStyle=1" parent="1" vertex="1">
          <mxGeometry x="160" y="780" width="90" height="50" as="geometry" />
        </mxCell>
        <mxCell id="ZKI_vBoumGyFwL3VDmpo-37" value="" style="endArrow=none;html=1;rounded=0;entryX=0;entryY=0.5;entryDx=0;entryDy=0;fontStyle=1" parent="1" target="ZKI_vBoumGyFwL3VDmpo-36" edge="1">
          <mxGeometry width="50" height="50" relative="1" as="geometry">
            <mxPoint x="80" y="880" as="sourcePoint" />
            <mxPoint x="130" y="830" as="targetPoint" />
          </mxGeometry>
        </mxCell>
        <mxCell id="ZKI_vBoumGyFwL3VDmpo-38" value="&lt;font style=&quot;font-size: 10px;&quot;&gt;&amp;lt;&amp;lt;include&amp;gt;&amp;gt;&lt;/font&gt;" style="text;html=1;align=center;verticalAlign=middle;whiteSpace=wrap;rounded=0;rotation=-45;fontStyle=1" parent="1" vertex="1">
          <mxGeometry x="240" y="810" width="60" height="30" as="geometry" />
        </mxCell>
        <mxCell id="ZKI_vBoumGyFwL3VDmpo-40" value="" style="html=1;labelBackgroundColor=#ffffff;startArrow=none;startFill=0;startSize=6;endArrow=classic;endFill=1;endSize=6;jettySize=auto;orthogonalLoop=1;strokeWidth=1;dashed=1;fontSize=14;rounded=0;exitX=0.948;exitY=0.227;exitDx=0;exitDy=0;entryX=0;entryY=1;entryDx=0;entryDy=0;exitPerimeter=0;fontStyle=1" parent="1" target="FY4jOLK4kZRqqMJBtK9q-74" edge="1">
          <mxGeometry width="60" height="60" relative="1" as="geometry">
            <mxPoint x="240" y="788" as="sourcePoint" />
            <mxPoint x="307" y="730" as="targetPoint" />
          </mxGeometry>
        </mxCell>
        <mxCell id="ZKI_vBoumGyFwL3VDmpo-42" value="&lt;font style=&quot;font-size: 10px;&quot;&gt;&amp;lt;&amp;lt;include&amp;gt;&amp;gt;&lt;/font&gt;" style="text;html=1;align=center;verticalAlign=middle;whiteSpace=wrap;rounded=0;rotation=-50;fontStyle=1" parent="1" vertex="1">
          <mxGeometry x="230" y="730" width="60" height="30" as="geometry" />
        </mxCell>
        <mxCell id="ZKI_vBoumGyFwL3VDmpo-43" value="" style="endArrow=none;html=1;rounded=0;entryX=0;entryY=0.5;entryDx=0;entryDy=0;fontStyle=1" parent="1" target="ZKI_vBoumGyFwL3VDmpo-1" edge="1">
          <mxGeometry width="50" height="50" relative="1" as="geometry">
            <mxPoint x="80" y="880" as="sourcePoint" />
            <mxPoint x="170" y="970" as="targetPoint" />
          </mxGeometry>
        </mxCell>
        <mxCell id="ZKI_vBoumGyFwL3VDmpo-45" value="" style="endArrow=none;html=1;rounded=0;entryX=0.072;entryY=0.271;entryDx=0;entryDy=0;entryPerimeter=0;fontStyle=1" parent="1" target="ZKI_vBoumGyFwL3VDmpo-3" edge="1">
          <mxGeometry width="50" height="50" relative="1" as="geometry">
            <mxPoint x="80" y="880" as="sourcePoint" />
            <mxPoint x="170" y="885" as="targetPoint" />
          </mxGeometry>
        </mxCell>
        <mxCell id="ZKI_vBoumGyFwL3VDmpo-46" value="" style="endArrow=none;html=1;rounded=0;entryX=1;entryY=0.5;entryDx=0;entryDy=0;exitX=0;exitY=0.5;exitDx=0;exitDy=0;fontStyle=1" parent="1" source="ZKI_vBoumGyFwL3VDmpo-25" target="ZKI_vBoumGyFwL3VDmpo-25" edge="1">
          <mxGeometry width="50" height="50" relative="1" as="geometry">
            <mxPoint x="370" y="1270" as="sourcePoint" />
            <mxPoint x="420" y="1220" as="targetPoint" />
          </mxGeometry>
        </mxCell>
        <mxCell id="ZKI_vBoumGyFwL3VDmpo-47" value="&lt;font style=&quot;font-size: 10px;&quot;&gt;Keep Existing System&lt;/font&gt;" style="ellipse;whiteSpace=wrap;html=1;fontStyle=1" parent="1" vertex="1">
          <mxGeometry x="470.38" y="1300" width="90" height="50" as="geometry" />
        </mxCell>
        <mxCell id="ZKI_vBoumGyFwL3VDmpo-48" value="&lt;font style=&quot;font-size: 10px;&quot;&gt;&amp;lt;&amp;lt;extend&amp;gt;&amp;gt;&lt;/font&gt;" style="text;html=1;align=center;verticalAlign=middle;whiteSpace=wrap;rounded=0;rotation=0;fontStyle=1" parent="1" vertex="1">
          <mxGeometry x="390" y="1310" width="60" height="20" as="geometry" />
        </mxCell>
        <mxCell id="ZKI_vBoumGyFwL3VDmpo-49" value="" style="html=1;labelBackgroundColor=#ffffff;startArrow=none;startFill=0;startSize=6;endArrow=classic;endFill=1;endSize=6;jettySize=auto;orthogonalLoop=1;strokeWidth=1;dashed=1;fontSize=14;rounded=0;exitX=0;exitY=0.5;exitDx=0;exitDy=0;entryX=1;entryY=0.5;entryDx=0;entryDy=0;fontStyle=1" parent="1" source="ZKI_vBoumGyFwL3VDmpo-47" target="ZKI_vBoumGyFwL3VDmpo-25" edge="1">
          <mxGeometry width="60" height="60" relative="1" as="geometry">
            <mxPoint x="490" y="1385" as="sourcePoint" />
            <mxPoint x="553" y="1310" as="targetPoint" />
          </mxGeometry>
        </mxCell>
        <mxCell id="ZKI_vBoumGyFwL3VDmpo-52" value="&lt;font style=&quot;font-size: 10px;&quot;&gt;Add New Members to the system&lt;/font&gt;" style="ellipse;whiteSpace=wrap;html=1;fontStyle=1" parent="1" vertex="1">
          <mxGeometry x="230" y="1220" width="110" height="50" as="geometry" />
        </mxCell>
        <mxCell id="ZKI_vBoumGyFwL3VDmpo-53" value="&lt;span style=&quot;font-size: 10px;&quot;&gt;Check Registration Form&lt;/span&gt;" style="ellipse;whiteSpace=wrap;html=1;fontStyle=1" parent="1" vertex="1">
          <mxGeometry x="444.96" y="1220" width="90" height="50" as="geometry" />
        </mxCell>
        <mxCell id="ZKI_vBoumGyFwL3VDmpo-54" value="" style="html=1;labelBackgroundColor=#ffffff;startArrow=none;startFill=0;startSize=6;endArrow=classic;endFill=1;endSize=6;jettySize=auto;orthogonalLoop=1;strokeWidth=1;dashed=1;fontSize=14;rounded=0;exitX=1;exitY=0.5;exitDx=0;exitDy=0;entryX=0;entryY=0.5;entryDx=0;entryDy=0;fontStyle=1" parent="1" source="ZKI_vBoumGyFwL3VDmpo-52" target="ZKI_vBoumGyFwL3VDmpo-53" edge="1">
          <mxGeometry width="60" height="60" relative="1" as="geometry">
            <mxPoint x="444.96" y="1270" as="sourcePoint" />
            <mxPoint x="334.96" y="1260" as="targetPoint" />
          </mxGeometry>
        </mxCell>
        <mxCell id="ZKI_vBoumGyFwL3VDmpo-55" value="&lt;font style=&quot;font-size: 10px;&quot;&gt;&amp;lt;&amp;lt;include&amp;gt;&amp;gt;&lt;/font&gt;" style="text;html=1;align=center;verticalAlign=middle;whiteSpace=wrap;rounded=0;rotation=0;fontStyle=1" parent="1" vertex="1">
          <mxGeometry x="352.46" y="1230" width="60" height="10" as="geometry" />
        </mxCell>
        <mxCell id="ZKI_vBoumGyFwL3VDmpo-57" value="" style="endArrow=none;html=1;rounded=0;entryX=0;entryY=0.5;entryDx=0;entryDy=0;fontStyle=1" parent="1" target="ZKI_vBoumGyFwL3VDmpo-26" edge="1">
          <mxGeometry width="50" height="50" relative="1" as="geometry">
            <mxPoint x="110" y="1200" as="sourcePoint" />
            <mxPoint x="220" y="1110" as="targetPoint" />
          </mxGeometry>
        </mxCell>
        <mxCell id="ZKI_vBoumGyFwL3VDmpo-60" value="" style="endArrow=none;html=1;rounded=0;entryX=0.038;entryY=0.369;entryDx=0;entryDy=0;entryPerimeter=0;fontStyle=1" parent="1" target="ZKI_vBoumGyFwL3VDmpo-25" edge="1">
          <mxGeometry width="50" height="50" relative="1" as="geometry">
            <mxPoint x="110" y="1200" as="sourcePoint" />
            <mxPoint x="220" y="1280" as="targetPoint" />
          </mxGeometry>
        </mxCell>
        <mxCell id="ZKI_vBoumGyFwL3VDmpo-61" value="" style="endArrow=none;html=1;rounded=0;entryX=0;entryY=0.5;entryDx=0;entryDy=0;fontStyle=1" parent="1" target="ZKI_vBoumGyFwL3VDmpo-52" edge="1">
          <mxGeometry width="50" height="50" relative="1" as="geometry">
            <mxPoint x="110" y="1200" as="sourcePoint" />
            <mxPoint x="190" y="1200" as="targetPoint" />
          </mxGeometry>
        </mxCell>
        <mxCell id="ZKI_vBoumGyFwL3VDmpo-63" value="&lt;span style=&quot;font-size: 10px;&quot;&gt;Monthly Report&lt;/span&gt;" style="ellipse;whiteSpace=wrap;html=1;fontStyle=1" parent="1" vertex="1">
          <mxGeometry x="280" y="890" width="80" height="40" as="geometry" />
        </mxCell>
        <mxCell id="ZKI_vBoumGyFwL3VDmpo-65" value="&lt;span style=&quot;font-size: 10px;&quot;&gt;Annual Report&lt;/span&gt;" style="ellipse;whiteSpace=wrap;html=1;fontStyle=1" parent="1" vertex="1">
          <mxGeometry x="290" y="940" width="80" height="40" as="geometry" />
        </mxCell>
        <mxCell id="ZKI_vBoumGyFwL3VDmpo-66" value="" style="endArrow=classic;html=1;rounded=0;entryX=0.918;entryY=0.255;entryDx=0;entryDy=0;entryPerimeter=0;exitX=0;exitY=0.5;exitDx=0;exitDy=0;fontStyle=1" parent="1" source="ZKI_vBoumGyFwL3VDmpo-63" target="ZKI_vBoumGyFwL3VDmpo-3" edge="1">
          <mxGeometry width="50" height="50" relative="1" as="geometry">
            <mxPoint x="310" y="980" as="sourcePoint" />
            <mxPoint x="360" y="930" as="targetPoint" />
          </mxGeometry>
        </mxCell>
        <mxCell id="ZKI_vBoumGyFwL3VDmpo-67" value="" style="endArrow=classic;html=1;rounded=0;exitX=0;exitY=0;exitDx=0;exitDy=0;fontStyle=1" parent="1" source="ZKI_vBoumGyFwL3VDmpo-65" edge="1">
          <mxGeometry width="50" height="50" relative="1" as="geometry">
            <mxPoint x="290" y="920" as="sourcePoint" />
            <mxPoint x="250" y="930" as="targetPoint" />
          </mxGeometry>
        </mxCell>
        <mxCell id="ZKI_vBoumGyFwL3VDmpo-68" value="" style="endArrow=none;html=1;rounded=0;entryX=1;entryY=0.5;entryDx=0;entryDy=0;exitX=0;exitY=0.5;exitDx=0;exitDy=0;fontStyle=1" parent="1" source="ZKI_vBoumGyFwL3VDmpo-24" target="ZKI_vBoumGyFwL3VDmpo-24" edge="1">
          <mxGeometry width="50" height="50" relative="1" as="geometry">
            <mxPoint x="310" y="1230" as="sourcePoint" />
            <mxPoint x="360" y="1180" as="targetPoint" />
          </mxGeometry>
        </mxCell>
        <mxCell id="ZKI_vBoumGyFwL3VDmpo-69" value="" style="endArrow=none;html=1;rounded=0;entryX=0.071;entryY=0.748;entryDx=0;entryDy=0;entryPerimeter=0;fontStyle=1" parent="1" target="ZKI_vBoumGyFwL3VDmpo-24" edge="1">
          <mxGeometry width="50" height="50" relative="1" as="geometry">
            <mxPoint x="110" y="1200" as="sourcePoint" />
            <mxPoint x="165" y="1110" as="targetPoint" />
          </mxGeometry>
        </mxCell>
        <mxCell id="ZKI_vBoumGyFwL3VDmpo-70" value="" style="endArrow=none;html=1;rounded=0;fontStyle=1" parent="1" target="ZKI_vBoumGyFwL3VDmpo-4" edge="1">
          <mxGeometry width="50" height="50" relative="1" as="geometry">
            <mxPoint x="80" y="880" as="sourcePoint" />
            <mxPoint x="125" y="920" as="targetPoint" />
          </mxGeometry>
        </mxCell>
        <mxCell id="ZKI_vBoumGyFwL3VDmpo-71" value="&lt;font style=&quot;font-size: 10px;&quot;&gt;&amp;lt;&amp;lt;extend&amp;gt;&amp;gt;&lt;/font&gt;" style="text;html=1;align=center;verticalAlign=middle;whiteSpace=wrap;rounded=0;rotation=90;fontStyle=1" parent="1" vertex="1">
          <mxGeometry x="210" y="1060" width="60" height="20" as="geometry" />
        </mxCell>
        <mxCell id="ZKI_vBoumGyFwL3VDmpo-72" value="" style="html=1;labelBackgroundColor=#ffffff;startArrow=none;startFill=0;startSize=6;endArrow=classic;endFill=1;endSize=6;jettySize=auto;orthogonalLoop=1;strokeWidth=1;dashed=1;fontSize=14;rounded=0;exitX=0.5;exitY=0;exitDx=0;exitDy=0;entryX=0.696;entryY=0.948;entryDx=0;entryDy=0;entryPerimeter=0;fontStyle=1" parent="1" source="ZKI_vBoumGyFwL3VDmpo-24" target="ZKI_vBoumGyFwL3VDmpo-4" edge="1">
          <mxGeometry width="60" height="60" relative="1" as="geometry">
            <mxPoint x="320" y="1064" as="sourcePoint" />
            <mxPoint x="234" y="1060" as="targetPoint" />
          </mxGeometry>
        </mxCell>
      </root>
    </mxGraphModel>
  </diagram>
</mxfile>
